# xmcd
# Track frame offsets:
# 150
# 20246
# 39877
# 62574
# 86061
# 109579
# 132733
# 152950
# 170280
# 194312
# 262554
#
# Disc length: 4311 seconds
# Revision: 0
# Processed by: cddbd v1.4PL0 Copyright (c) Steve Scherf et al.
# Submitted via: VisiTrax 2.9.5.181 - For more info visit www.synapsa.com
#
DISCID=8c10d50b
DTITLE=Chuck Hall Band - Live
DYEAR=1994
DGENRE=Blues/rock
TTITLE0=Whole lot of lovin
TTITLE1=´Bad to the bone
TTITLE2=Young boy
TTITLE3=Cold Shot
TTITLE4=The sky is crying
TTITLE5=Good mind to quit you
TTITLE6=Sidetrack
TTITLE7=Thje wind cries Mary
TTITLE8=Too young to know
TTITLE9=I didn´t get it
TTITLE10=Them changes
EXTD=
EXTT0=
EXTT1=
EXTT2=
EXTT3=
EXTT4=
EXTT5=
EXTT6=
EXTT7=
EXTT8=
EXTT9=
EXTT10=
PLAYORDER=
